 <svg xmlns="http://www.w3.org/2000/svg" viewBox="0 0 330.2 43.7" xml:space="preserve" id="tidal-wide">
          <path fill="#fff"
            d="M120.1 42.8h-8.5V12.7h-11V5.5H131v7.3h-11l.1 30zM165 42.8h-8.5V5.5h8.5v37.3zM315.4 35.4h14.7v7.4h-23.3V5.5h8.5v29.9zM193.4 5.5h13.8c10.2 0 20.3 5.4 20.3 18.6 0 12.4-9.9 18.8-19.8 18.8h-14.3V5.5zm8.2 30h5.3c7.1 0 11.9-4.4 11.9-11.5 0-6.7-4.8-11.2-11.7-11.2h-5.5v22.7zM274.8 42.8h9.4L268.8 5.5H260l-15.5 37.3h9.1l2.8-7.4h15.7l2.7 7.4zm-16.2-14 5.6-14.6 5.6 14.6h-11.2zM43.7 10.9 32.8 21.8 21.9 10.9 32.8 0zM43.695 32.71 32.805 43.6l-10.96-10.96 10.89-10.89zM21.9 10.9l-11 10.9L0 10.9 10.9 0zM65.5 10.9 54.6 21.8 43.7 10.9 54.6 0z">
          </path>
        </svg>